<?xml version="1.0" encoding="UTF-8"?>
<svg id="Layer_1" data-name="Layer 1" xmlns="http://www.w3.org/2000/svg" viewBox="0 0 576 576">
  <defs>
    <style>
      .cls-1 {
        fill: #e9dfce;
      }

      .cls-2 {
        fill: #1e2125;
      }
    </style>
  </defs>
  <rect class="cls-2" width="576" height="576"/>
  <g>
    <path class="cls-1" d="M163.05,426.22c-19.37,0-35.82-3.5-49.35-10.5-13.54-7-25.67-17.26-36.4-30.8l27.3-27.3c6.77,9.8,14.81,17.45,24.15,22.92,9.33,5.49,21.23,8.22,35.7,8.22,13.53,0,24.33-2.8,32.38-8.4,8.05-5.6,12.08-13.3,12.08-23.1,0-8.17-2.1-14.81-6.3-19.95-4.2-5.13-9.75-9.39-16.62-12.77-6.89-3.38-14.47-6.42-22.75-9.1-8.29-2.68-16.57-5.71-24.85-9.1-8.29-3.38-15.87-7.64-22.75-12.77-6.88-5.13-12.42-11.78-16.62-19.95-4.2-8.16-6.3-18.55-6.3-31.15,0-14.46,3.55-26.77,10.67-36.92,7.12-10.15,16.74-17.9,28.88-23.28,12.13-5.36,25.67-8.05,40.6-8.05,16.1,0,30.5,3.15,43.23,9.45,12.71,6.3,23.04,14.35,30.98,24.15l-27.3,27.3c-7-7.93-14.29-13.82-21.88-17.67-7.58-3.85-16.27-5.77-26.07-5.77-12.14,0-21.65,2.45-28.52,7.35-6.89,4.9-10.33,11.79-10.33,20.65,0,7.47,2.1,13.47,6.3,18.02,4.2,4.55,9.74,8.4,16.62,11.55,6.88,3.15,14.46,6.12,22.75,8.93,8.28,2.8,16.56,5.95,24.85,9.45,8.28,3.5,15.86,8,22.75,13.47,6.88,5.49,12.43,12.55,16.62,21.17,4.2,8.64,6.3,19.49,6.3,32.55,0,21.94-7.76,39.32-23.28,52.15-15.52,12.83-36.46,19.25-62.82,19.25Z"/>
    <path class="cls-1" d="M289.4,422.72v-245h40.25v245h-40.25ZM317.05,422.72v-36.75h64.4c16.8,0,31.55-3.62,44.28-10.85,12.71-7.23,22.63-17.33,29.75-30.28,7.12-12.95,10.67-27.94,10.67-44.97s-3.62-31.61-10.85-44.45c-7.23-12.83-17.21-22.87-29.92-30.1-12.72-7.23-27.36-10.85-43.93-10.85h-64.4v-36.75h65.45c17.73,0,34.18,3.1,49.35,9.27,15.16,6.19,28.4,14.82,39.72,25.9,11.31,11.09,20.12,24.04,26.43,38.85,6.3,14.82,9.45,30.98,9.45,48.47s-3.15,33.37-9.45,48.3c-6.3,14.94-15.05,27.95-26.25,39.03-11.2,11.08-24.39,19.72-39.55,25.9-15.17,6.19-31.5,9.28-49,9.28h-66.15Z"/>
  </g>
</svg>